<svg 
 xmlns="http://www.w3.org/2000/svg"
 xmlns:xlink="http://www.w3.org/1999/xlink"
 width="25px" height="18px">
<path fill-rule="evenodd"  fill="rgb(28, 28, 28)"
 d="M22.745,0.502 L3.206,0.502 C1.963,0.502 0.952,1.555 0.952,2.851 L0.952,15.647 C0.952,16.943 1.963,17.996 3.206,17.996 L22.745,17.996 C23.988,17.996 24.999,16.943 24.999,15.647 L24.999,2.851 C24.999,1.556 23.988,0.502 22.745,0.502 ZM22.376,2.68 L12.976,9.133 L3.575,2.68 L22.376,2.68 ZM22.745,16.430 L3.206,16.430 C2.792,16.430 2.455,16.79 2.455,15.647 L2.455,3.158 L12.536,10.735 C12.668,10.834 12.822,10.882 12.976,10.882 C13.130,10.882 13.284,10.834 13.415,10.735 L23.496,3.158 L23.496,15.647 C23.496,16.79 23.160,16.430 22.745,16.430 Z"/>
</svg>