<svg 
 xmlns="http://www.w3.org/2000/svg"
 xmlns:xlink="http://www.w3.org/1999/xlink"
 width="20px" height="20px">
<path fill-rule="evenodd"  fill="rgb(28, 28, 28)"
 d="M19.425,11.677 L19.425,19.47 L15.460,19.47 L15.460,12.171 C15.460,10.444 14.887,9.265 13.451,9.265 C12.356,9.265 11.704,10.60 11.417,10.828 C11.313,11.102 11.286,11.485 11.286,11.870 L11.286,19.47 L7.320,19.47 C7.320,19.47 7.373,7.401 7.320,6.195 L11.285,6.195 L11.285,8.17 C11.277,8.30 11.267,8.45 11.259,8.58 L11.285,8.58 L11.285,8.17 C11.812,7.142 12.753,5.893 14.859,5.893 C17.469,5.893 19.425,7.730 19.425,11.677 ZM3.171,0.0 C1.814,0.0 0.927,0.958 0.927,2.220 C0.927,3.453 1.789,4.441 3.118,4.441 L3.145,4.441 C4.528,4.441 5.388,3.453 5.388,2.220 C5.362,0.958 4.528,0.0 3.171,0.0 ZM1.162,19.47 L5.127,19.47 L5.127,6.195 L1.162,6.195 L1.162,19.47 Z"/>
</svg>