<svg 
 xmlns="http://www.w3.org/2000/svg"
 xmlns:xlink="http://www.w3.org/1999/xlink"
 width="19px" height="17px">
<path fill-rule="evenodd"  fill="rgb(28, 28, 28)"
 d="M18.504,2.612 C17.823,2.918 17.92,3.125 16.324,3.218 C17.108,2.742 17.709,1.988 17.993,1.90 C17.259,1.531 16.447,1.851 15.583,2.23 C14.891,1.275 13.904,0.808 12.813,0.808 C10.717,0.808 9.18,2.531 9.18,4.655 C9.18,4.957 9.51,5.251 9.116,5.532 C5.962,5.372 3.165,3.840 1.294,1.513 C0.967,2.81 0.780,2.741 0.780,3.446 C0.780,4.781 1.450,5.959 2.468,6.649 C1.846,6.629 1.261,6.456 0.749,6.167 C0.749,6.183 0.749,6.200 0.749,6.216 C0.749,8.80 2.57,9.635 3.793,9.988 C3.475,10.76 3.139,10.124 2.793,10.124 C2.549,10.124 2.311,10.99 2.79,10.54 C2.562,11.583 3.964,12.695 5.624,12.726 C4.325,13.758 2.689,14.373 0.911,14.373 C0.605,14.373 0.303,14.355 0.6,14.319 C1.685,15.410 3.680,16.48 5.823,16.48 C12.804,16.48 16.621,10.185 16.621,5.101 C16.621,4.935 16.617,4.769 16.610,4.604 C17.352,4.61 17.995,3.384 18.504,2.612 Z"/>
</svg>