<svg 
 xmlns="http://www.w3.org/2000/svg"
 xmlns:xlink="http://www.w3.org/1999/xlink"
 width="115px" height="44px">
<path fill-rule="evenodd"  fill="rgb(49, 114, 185)"
 d="M114.331,41.537 L114.331,38.893 C114.331,38.361 114.240,37.955 114.57,37.672 C113.875,37.390 113.537,37.249 113.44,37.249 C113.10,37.249 112.915,37.263 112.760,37.290 C112.604,37.317 112.441,37.392 112.269,37.514 C112.96,37.637 111.942,37.821 111.807,38.65 C111.672,38.311 111.605,38.651 111.605,39.87 L111.605,41.537 L110.936,41.537 L110.936,37.810 C110.936,37.681 110.930,37.518 110.920,37.320 C110.910,37.123 110.898,36.935 110.884,36.759 L111.574,36.759 C111.587,36.888 111.595,37.15 111.600,37.142 C111.603,37.268 111.605,37.396 111.605,37.525 L111.624,37.525 C111.699,37.396 111.793,37.276 111.908,37.167 C112.24,37.58 112.151,36.965 112.293,36.887 C112.435,36.807 112.586,36.747 112.745,36.703 C112.904,36.658 113.60,36.636 113.216,36.636 C113.824,36.636 114.274,36.798 114.564,37.122 C114.855,37.444 115.0,37.906 115.0,38.504 L115.0,41.537 L114.331,41.537 ZM103.858,22.441 C106.267,22.441 108.585,21.447 110.808,19.459 L113.223,21.641 C110.272,24.351 107.151,25.705 103.858,25.705 C100.335,25.705 97.333,24.456 94.851,21.955 C92.368,19.454 91.126,16.430 91.126,12.882 C91.126,9.346 92.368,6.322 94.851,3.810 C97.333,1.299 100.335,0.44 103.858,0.44 C107.151,0.44 110.272,1.399 113.223,4.109 L110.808,6.322 C108.585,4.334 106.267,3.340 103.858,3.340 C101.249,3.340 99.19,4.271 97.164,6.134 C95.310,7.996 94.383,10.245 94.383,12.882 C94.383,15.530 95.310,17.785 97.164,19.648 C99.19,21.510 101.249,22.441 103.858,22.441 ZM89.133,40.945 C88.910,41.170 88.645,41.344 88.337,41.470 C88.29,41.597 87.690,41.660 87.318,41.660 C86.954,41.660 86.617,41.597 86.309,41.470 C86.2,41.344 85.737,41.170 85.514,40.945 C85.291,40.720 85.117,40.455 84.992,40.148 C84.867,39.842 84.805,39.509 84.805,39.147 C84.805,38.787 84.867,38.453 84.992,38.147 C85.117,37.841 85.291,37.575 85.514,37.351 C85.737,37.127 86.2,36.951 86.309,36.825 C86.617,36.700 86.954,36.636 87.318,36.636 C87.690,36.636 88.29,36.700 88.337,36.825 C88.645,36.951 88.910,37.127 89.133,37.351 C89.356,37.575 89.530,37.841 89.654,38.147 C89.780,38.453 89.843,38.787 89.843,39.147 C89.843,39.509 89.780,39.842 89.654,40.148 C89.530,40.455 89.356,40.720 89.133,40.945 ZM88.985,38.403 C88.901,38.171 88.782,37.971 88.626,37.800 C88.471,37.630 88.283,37.496 88.63,37.397 C87.844,37.298 87.595,37.249 87.318,37.249 C87.41,37.249 86.793,37.298 86.573,37.397 C86.354,37.496 86.168,37.630 86.16,37.800 C85.864,37.971 85.745,38.171 85.661,38.403 C85.576,38.634 85.534,38.882 85.534,39.147 C85.534,39.413 85.576,39.662 85.661,39.893 C85.745,40.124 85.864,40.325 86.16,40.495 C86.168,40.666 86.354,40.801 86.573,40.899 C86.793,40.998 87.41,41.47 87.318,41.47 C87.595,41.47 87.844,40.998 88.63,40.899 C88.283,40.801 88.471,40.666 88.626,40.495 C88.782,40.325 88.901,40.124 88.985,39.893 C89.70,39.662 89.112,39.413 89.112,39.147 C89.112,38.882 89.70,38.634 88.985,38.403 ZM81.692,0.326 L84.918,0.326 L84.918,25.439 L81.692,25.439 L81.692,0.326 ZM83.690,35.3 L83.51,35.503 C82.733,35.33 82.271,34.799 81.662,34.799 C81.473,34.799 81.287,34.823 81.105,34.875 C80.922,34.927 80.759,35.5 80.613,35.109 C80.467,35.216 80.351,35.352 80.264,35.518 C80.175,35.685 80.132,35.880 80.132,36.105 C80.132,36.432 80.223,36.686 80.406,36.866 C80.588,37.47 80.814,37.195 81.84,37.310 C81.355,37.426 81.650,37.530 81.971,37.622 C82.292,37.713 82.588,37.836 82.858,37.989 C83.128,38.142 83.355,38.345 83.538,38.596 C83.720,38.848 83.811,39.192 83.811,39.628 C83.811,39.955 83.741,40.249 83.604,40.511 C83.465,40.773 83.282,40.992 83.56,41.170 C82.829,41.347 82.576,41.482 82.295,41.578 C82.15,41.673 81.733,41.721 81.449,41.721 C81.10,41.721 80.593,41.637 80.198,41.470 C79.802,41.304 79.466,41.30 79.189,40.649 L79.858,40.169 C80.13,40.434 80.228,40.647 80.505,40.807 C80.781,40.967 81.108,41.47 81.485,41.47 C81.667,41.47 81.848,41.18 82.31,40.960 C82.212,40.902 82.375,40.817 82.521,40.704 C82.665,40.593 82.785,40.455 82.879,40.291 C82.973,40.128 83.20,39.941 83.20,39.730 C83.20,39.478 82.968,39.269 82.864,39.102 C82.758,38.935 82.620,38.795 82.448,38.684 C82.276,38.571 82.79,38.478 81.860,38.403 C81.640,38.328 81.414,38.253 81.181,38.178 C80.947,38.103 80.721,38.18 80.501,37.923 C80.282,37.828 80.86,37.707 79.914,37.560 C79.741,37.414 79.603,37.230 79.498,37.9 C79.393,36.788 79.341,36.510 79.341,36.177 C79.341,35.830 79.407,35.526 79.538,35.268 C79.670,35.10 79.846,34.795 80.66,34.625 C80.285,34.455 80.533,34.328 80.811,34.247 C81.88,34.165 81.372,34.124 81.662,34.124 C82.68,34.124 82.436,34.190 82.767,34.318 C83.98,34.448 83.406,34.675 83.690,35.3 ZM61.865,7.295 L61.865,25.439 L58.639,25.439 L58.639,0.326 L61.584,0.326 L71.869,18.250 L71.869,0.326 L75.110,0.326 L75.110,25.439 L72.289,25.439 L61.865,7.295 ZM60.183,36.830 C60.467,36.960 60.705,37.132 60.898,37.346 C61.90,37.560 61.237,37.812 61.338,38.101 C61.440,38.391 61.491,38.699 61.491,39.25 L61.491,39.332 L57.537,39.332 C57.558,39.569 57.615,39.794 57.710,40.6 C57.805,40.217 57.929,40.399 58.85,40.551 C58.240,40.704 58.419,40.826 58.622,40.914 C58.825,41.3 59.44,41.47 59.281,41.47 C59.639,41.47 59.948,40.964 60.208,40.797 C60.468,40.629 60.666,40.438 60.801,40.220 L61.319,40.649 C61.35,41.9 60.722,41.268 60.381,41.425 C60.39,41.581 59.673,41.660 59.281,41.660 C58.930,41.660 58.603,41.597 58.303,41.470 C58.2,41.344 57.744,41.170 57.527,40.945 C57.311,40.720 57.140,40.455 57.15,40.148 C56.891,39.842 56.828,39.509 56.828,39.147 C56.828,38.787 56.889,38.453 57.10,38.147 C57.132,37.841 57.301,37.575 57.517,37.351 C57.734,37.127 57.987,36.951 58.277,36.825 C58.568,36.700 58.882,36.636 59.220,36.636 C59.578,36.636 59.899,36.701 60.183,36.830 ZM58.59,37.718 C57.908,37.861 57.786,38.25 57.695,38.209 C57.603,38.393 57.558,38.582 57.558,38.780 L60.761,38.780 C60.761,38.325 60.626,37.955 60.355,37.672 C60.85,37.390 59.707,37.249 59.220,37.249 C59.4,37.249 58.794,37.291 58.592,37.376 C58.389,37.461 58.211,37.575 58.59,37.718 ZM52.246,34.308 L52.976,34.308 L52.976,40.863 L56.321,40.863 L56.321,41.537 L52.246,41.537 L52.246,34.308 ZM39.981,25.705 C36.458,25.705 33.452,24.450 30.958,21.939 C28.465,19.427 27.218,16.398 27.218,12.851 C27.218,9.304 28.465,6.275 30.958,3.764 C33.452,1.252 36.458,0.3 39.981,0.3 C43.502,0.3 46.510,1.252 49.3,3.764 C51.496,6.275 52.743,9.304 52.743,12.851 C52.743,16.398 51.496,19.427 49.3,21.939 C46.510,24.450 43.502,25.705 39.981,25.705 ZM46.705,6.78 C44.850,4.211 42.609,3.277 39.981,3.277 C37.352,3.277 35.110,4.211 33.257,6.78 C31.402,7.946 30.475,10.204 30.475,12.851 C30.475,15.498 31.405,17.759 33.264,19.632 C35.124,21.505 37.362,22.441 39.981,22.441 C42.609,22.441 44.850,21.505 46.705,19.632 C48.559,17.759 49.486,15.498 49.486,12.851 C49.486,10.204 48.559,7.946 46.705,6.78 ZM17.784,0.326 L21.9,0.326 L21.9,25.439 L17.784,25.439 L17.784,0.326 ZM0.1,0.326 L3.223,0.326 L3.223,22.174 L12.137,22.174 L12.137,25.439 L0.1,25.439 L0.1,0.326 ZM42.982,38.726 L0.1,38.726 L0.1,37.378 L42.982,37.378 L42.982,38.726 ZM66.711,40.638 C66.494,40.965 66.231,41.196 65.920,41.332 C65.609,41.469 65.282,41.537 64.937,41.537 C64.593,41.537 64.269,41.475 63.969,41.353 C63.668,41.231 63.407,41.62 63.184,40.847 C62.960,40.633 62.785,40.377 62.657,40.77 C62.528,39.777 62.464,39.454 62.464,39.107 C62.464,38.760 62.525,38.436 62.646,38.137 C62.768,37.838 62.935,37.575 63.148,37.351 C63.361,37.127 63.614,36.951 63.908,36.825 C64.202,36.700 64.525,36.636 64.877,36.636 C65.18,36.636 65.169,36.650 65.327,36.677 C65.486,36.705 65.645,36.752 65.804,36.820 C65.962,36.888 66.120,36.982 66.275,37.101 C66.431,37.220 66.576,37.371 66.711,37.555 L66.731,37.555 L66.731,36.759 L67.400,36.759 L67.400,41.496 C67.400,41.755 67.368,42.31 67.304,42.323 C67.240,42.615 67.115,42.885 66.929,43.130 C66.743,43.375 66.484,43.579 66.153,43.742 C65.822,43.906 65.390,43.987 64.856,43.987 C64.383,43.987 63.960,43.909 63.589,43.752 C63.217,43.596 62.879,43.355 62.575,43.28 L63.72,42.497 C63.268,42.762 63.523,42.974 63.837,43.135 C64.151,43.295 64.501,43.375 64.886,43.375 C65.224,43.375 65.512,43.325 65.748,43.227 C65.984,43.128 66.175,42.994 66.321,42.823 C66.466,42.654 66.571,42.454 66.635,42.226 C66.699,41.998 66.731,41.755 66.731,41.496 L66.731,40.638 L66.711,40.638 ZM66.752,39.87 C66.752,38.835 66.711,38.598 66.629,38.377 C66.549,38.156 66.431,37.963 66.275,37.795 C66.120,37.628 65.931,37.496 65.707,37.397 C65.484,37.298 65.235,37.249 64.957,37.249 C64.707,37.249 64.476,37.298 64.263,37.397 C64.50,37.496 63.864,37.628 63.705,37.795 C63.547,37.963 63.421,38.156 63.331,38.377 C63.239,38.598 63.194,38.835 63.194,39.87 C63.194,39.338 63.239,39.575 63.331,39.796 C63.421,40.17 63.547,40.211 63.705,40.379 C63.864,40.545 64.50,40.678 64.263,40.776 C64.476,40.876 64.707,40.924 64.957,40.924 C65.201,40.924 65.432,40.880 65.652,40.792 C65.871,40.703 66.65,40.579 66.234,40.419 C66.403,40.259 66.534,40.66 66.625,39.842 C66.716,39.618 66.758,39.366 66.752,39.87 ZM69.706,38.851 C70.7,38.744 70.328,38.675 70.669,38.647 C71.11,38.621 71.323,38.607 71.607,38.607 L71.941,38.607 L71.941,38.484 C71.941,37.661 71.536,37.249 70.725,37.249 C70.171,37.249 69.687,37.436 69.276,37.810 L68.870,37.331 C69.316,36.868 69.985,36.636 70.877,36.636 C71.107,36.636 71.328,36.670 71.541,36.738 C71.754,36.806 71.938,36.910 72.94,37.50 C72.249,37.190 72.374,37.364 72.468,37.575 C72.563,37.786 72.610,38.39 72.610,38.331 L72.610,40.465 C72.610,40.649 72.619,40.841 72.636,41.42 C72.652,41.243 72.671,41.407 72.692,41.537 L72.43,41.537 C72.23,41.422 72.7,41.296 71.997,41.159 C71.987,41.23 71.982,40.890 71.982,40.761 L71.962,40.761 C71.765,41.81 71.534,41.311 71.267,41.450 C71.1,41.590 70.674,41.660 70.289,41.660 C70.79,41.660 69.877,41.630 69.681,41.573 C69.485,41.515 69.311,41.426 69.159,41.308 C69.7,41.188 68.886,41.42 68.794,40.868 C68.703,40.695 68.657,40.492 68.657,40.261 C68.657,39.873 68.757,39.568 68.957,39.347 C69.155,39.126 69.405,38.961 69.706,38.851 ZM69.484,40.572 C69.547,40.684 69.634,40.776 69.742,40.847 C69.850,40.919 69.970,40.970 70.102,41.1 C70.234,41.32 70.367,41.47 70.502,41.47 C70.745,41.47 70.956,41.6 71.135,40.924 C71.314,40.842 71.465,40.733 71.586,40.593 C71.708,40.453 71.798,40.290 71.855,40.103 C71.912,39.915 71.941,39.716 71.941,39.505 L71.941,39.158 L71.597,39.158 C71.428,39.158 71.217,39.167 70.964,39.184 C70.710,39.201 70.466,39.242 70.234,39.306 C70.0,39.371 69.801,39.472 69.635,39.608 C69.470,39.744 69.387,39.931 69.387,40.169 C69.387,40.325 69.419,40.460 69.484,40.572 ZM74.983,41.537 L74.314,41.537 L74.314,33.818 L74.983,33.818 L74.983,41.537 ZM91.879,41.537 L91.210,41.537 L91.210,33.818 L91.879,33.818 L91.879,41.537 ZM94.160,39.403 C94.160,39.669 94.181,39.903 94.221,40.108 C94.262,40.312 94.331,40.483 94.429,40.623 C94.526,40.762 94.658,40.868 94.824,40.939 C94.989,41.11 95.197,41.47 95.448,41.47 C95.481,41.47 95.576,41.34 95.732,41.6 C95.887,40.978 96.51,40.904 96.223,40.781 C96.395,40.659 96.549,40.475 96.684,40.230 C96.819,39.985 96.886,39.644 96.886,39.209 L96.886,36.759 L97.555,36.759 L97.555,40.485 C97.555,40.615 97.561,40.777 97.571,40.975 C97.581,41.173 97.593,41.360 97.607,41.537 L96.917,41.537 C96.904,41.407 96.895,41.280 96.892,41.154 C96.888,41.28 96.886,40.900 96.886,40.771 L96.867,40.771 C96.792,40.900 96.698,41.20 96.583,41.128 C96.467,41.238 96.339,41.331 96.198,41.409 C96.56,41.487 95.905,41.548 95.746,41.593 C95.587,41.637 95.430,41.660 95.275,41.660 C94.667,41.660 94.217,41.498 93.927,41.175 C93.636,40.851 93.491,40.390 93.491,39.791 L93.491,36.759 L94.160,36.759 L94.160,39.403 ZM99.543,35.411 L100.212,35.411 L100.212,36.759 L101.580,36.759 L101.580,37.371 L100.212,37.371 L100.212,40.189 C100.212,40.366 100.229,40.511 100.263,40.623 C100.297,40.736 100.344,40.822 100.405,40.884 C100.466,40.945 100.537,40.987 100.622,41.11 C100.707,41.35 100.800,41.47 100.901,41.47 C101.16,41.47 101.135,41.30 101.256,40.995 C101.377,40.962 101.489,40.917 101.590,40.863 L101.621,41.485 C101.371,41.602 101.70,41.660 100.719,41.660 C100.590,41.660 100.457,41.643 100.318,41.608 C100.179,41.574 100.53,41.510 99.939,41.414 C99.823,41.319 99.729,41.190 99.654,41.27 C99.580,40.863 99.543,40.649 99.543,40.384 L99.543,37.371 L98.540,37.371 L98.540,36.759 L99.543,36.759 L99.543,35.411 ZM102.979,34.431 C103.100,34.431 103.212,34.477 103.313,34.569 C103.415,34.661 103.465,34.778 103.465,34.921 C103.465,35.64 103.415,35.181 103.313,35.274 C103.212,35.365 103.100,35.411 102.979,35.411 C102.857,35.411 102.746,35.365 102.644,35.274 C102.543,35.181 102.492,35.64 102.492,34.921 C102.492,34.778 102.543,34.661 102.644,34.569 C102.746,34.477 102.857,34.431 102.979,34.431 ZM103.313,41.537 L102.644,41.537 L102.644,36.759 L103.313,36.759 L103.313,41.537 ZM105.391,37.351 C105.614,37.127 105.880,36.951 106.187,36.825 C106.494,36.700 106.831,36.636 107.195,36.636 C107.567,36.636 107.906,36.700 108.214,36.825 C108.522,36.951 108.787,37.127 109.10,37.351 C109.233,37.575 109.407,37.841 109.532,38.147 C109.657,38.453 109.720,38.787 109.720,39.147 C109.720,39.509 109.657,39.842 109.532,40.148 C109.407,40.455 109.233,40.720 109.10,40.945 C108.787,41.170 108.522,41.344 108.214,41.470 C107.906,41.597 107.567,41.660 107.195,41.660 C106.831,41.660 106.494,41.597 106.187,41.470 C105.880,41.344 105.614,41.170 105.391,40.945 C105.169,40.720 104.995,40.455 104.869,40.148 C104.744,39.842 104.682,39.509 104.682,39.147 C104.682,38.787 104.744,38.453 104.869,38.147 C104.995,37.841 105.169,37.575 105.391,37.351 ZM105.538,39.893 C105.622,40.124 105.741,40.325 105.893,40.495 C106.45,40.666 106.231,40.801 106.450,40.899 C106.670,40.998 106.918,41.47 107.195,41.47 C107.473,41.47 107.721,40.998 107.940,40.899 C108.160,40.801 108.348,40.666 108.503,40.495 C108.659,40.325 108.778,40.124 108.863,39.893 C108.948,39.662 108.990,39.413 108.990,39.147 C108.990,38.882 108.948,38.634 108.863,38.403 C108.778,38.171 108.659,37.971 108.503,37.800 C108.348,37.630 108.160,37.496 107.940,37.397 C107.721,37.298 107.473,37.249 107.195,37.249 C106.918,37.249 106.670,37.298 106.450,37.397 C106.231,37.496 106.45,37.630 105.893,37.800 C105.741,37.971 105.622,38.171 105.538,38.403 C105.454,38.634 105.412,38.882 105.412,39.147 C105.412,39.413 105.454,39.662 105.538,39.893 Z"/>
</svg>