<svg 
 xmlns="http://www.w3.org/2000/svg"
 xmlns:xlink="http://www.w3.org/1999/xlink"
 width="14px" height="17px">
<path fill-rule="evenodd"  fill="rgb(120, 120, 120)"
 d="M7.190,16.966 C7.128,16.988 7.64,16.999 6.999,16.999 C6.935,16.999 6.870,16.988 6.808,16.966 C0.171,14.498 0.62,8.648 0.17,4.377 C0.26,3.918 0.34,3.484 0.34,3.65 C0.34,2.736 0.295,2.469 0.617,2.469 C3.111,2.469 5.10,1.738 6.593,0.168 C6.819,0.56 7.179,0.56 7.406,0.168 C8.989,1.738 10.888,2.469 13.382,2.469 C13.704,2.469 13.965,2.736 13.965,3.65 C13.965,3.484 13.974,3.918 13.982,4.376 C14.62,8.648 14.171,14.498 7.190,16.966 ZM12.816,4.399 C12.811,4.141 12.806,3.892 12.803,3.647 C10.467,3.547 8.599,2.824 6.999,1.403 C5.400,2.824 3.532,3.547 1.196,3.647 C1.193,3.892 1.188,4.142 1.183,4.400 C1.103,8.694 1.13,13.554 6.999,15.773 C12.986,13.554 12.896,8.693 12.816,4.399 ZM6.605,10.566 C6.491,10.683 6.342,10.740 6.193,10.740 C6.44,10.740 5.894,10.683 5.780,10.566 L4.167,8.920 C3.939,8.688 3.939,8.311 4.167,8.79 C4.394,7.846 4.764,7.846 4.992,8.79 L6.193,9.304 L9.8,6.432 C9.235,6.200 9.605,6.200 9.832,6.432 C10.60,6.665 10.60,7.41 9.832,7.274 L6.605,10.566 Z"/>
</svg>